<mxfile host="app.diagrams.net" modified="2022-10-05T12:40:23.202Z" agent="5.0 (Windows NT 10.0; Win64; x64) AppleWebKit/537.36 (KHTML, like Gecko) Chrome/105.0.0.0 Safari/537.36" etag="fszKjsGQyAqpGvK00R1S" version="20.4.0" type="github">
  <diagram id="C5RBs43oDa-KdzZeNtuy" name="Page-1">
    <mxGraphModel dx="1504" dy="1594" grid="1" gridSize="10" guides="1" tooltips="1" connect="1" arrows="0" fold="1" page="1" pageScale="1" pageWidth="827" pageHeight="1169" math="0" shadow="0">
      <root>
        <mxCell id="WIyWlLk6GJQsqaUBKTNV-0" />
        <mxCell id="WIyWlLk6GJQsqaUBKTNV-1" parent="WIyWlLk6GJQsqaUBKTNV-0" />
        <mxCell id="do4SoK2x88aqkqr1GzcB-0" value="final PIEDRA = 1&lt;br&gt;final&amp;nbsp;PAPEL = 2&lt;br&gt;final&amp;nbsp;TIJERA = 3" style="ellipse;shape=cloud;whiteSpace=wrap;html=1;fillColor=#1ba1e2;strokeColor=#006EAF;fontColor=#ffffff;" vertex="1" parent="WIyWlLk6GJQsqaUBKTNV-1">
          <mxGeometry x="-160" y="-100" width="160" height="100" as="geometry" />
        </mxCell>
        <mxCell id="do4SoK2x88aqkqr1GzcB-9" style="edgeStyle=orthogonalEdgeStyle;rounded=0;orthogonalLoop=1;jettySize=auto;html=1;exitX=0.5;exitY=1;exitDx=0;exitDy=0;entryX=0.5;entryY=0;entryDx=0;entryDy=0;" edge="1" parent="WIyWlLk6GJQsqaUBKTNV-1" source="do4SoK2x88aqkqr1GzcB-1" target="do4SoK2x88aqkqr1GzcB-6">
          <mxGeometry relative="1" as="geometry" />
        </mxCell>
        <mxCell id="do4SoK2x88aqkqr1GzcB-1" value="p1 = read.nextByte" style="rounded=1;whiteSpace=wrap;html=1;" vertex="1" parent="WIyWlLk6GJQsqaUBKTNV-1">
          <mxGeometry x="30" y="130" width="120" height="60" as="geometry" />
        </mxCell>
        <mxCell id="do4SoK2x88aqkqr1GzcB-3" style="edgeStyle=orthogonalEdgeStyle;rounded=0;orthogonalLoop=1;jettySize=auto;html=1;exitX=0.5;exitY=1;exitDx=0;exitDy=0;entryX=0.5;entryY=0;entryDx=0;entryDy=0;" edge="1" parent="WIyWlLk6GJQsqaUBKTNV-1" source="do4SoK2x88aqkqr1GzcB-2" target="do4SoK2x88aqkqr1GzcB-1">
          <mxGeometry relative="1" as="geometry" />
        </mxCell>
        <mxCell id="do4SoK2x88aqkqr1GzcB-5" style="edgeStyle=orthogonalEdgeStyle;rounded=0;orthogonalLoop=1;jettySize=auto;html=1;exitX=0.5;exitY=1;exitDx=0;exitDy=0;" edge="1" parent="WIyWlLk6GJQsqaUBKTNV-1" source="do4SoK2x88aqkqr1GzcB-2" target="do4SoK2x88aqkqr1GzcB-4">
          <mxGeometry relative="1" as="geometry" />
        </mxCell>
        <mxCell id="do4SoK2x88aqkqr1GzcB-2" value="out (Jugador x elige tu jugada)&lt;br&gt;Piedra = 1&lt;br&gt;Papel = 2&lt;br&gt;Tijera = 3" style="rounded=1;whiteSpace=wrap;html=1;" vertex="1" parent="WIyWlLk6GJQsqaUBKTNV-1">
          <mxGeometry x="104" width="120" height="90" as="geometry" />
        </mxCell>
        <mxCell id="do4SoK2x88aqkqr1GzcB-7" style="edgeStyle=orthogonalEdgeStyle;rounded=0;orthogonalLoop=1;jettySize=auto;html=1;exitX=0.5;exitY=1;exitDx=0;exitDy=0;entryX=0.5;entryY=0;entryDx=0;entryDy=0;" edge="1" parent="WIyWlLk6GJQsqaUBKTNV-1" source="do4SoK2x88aqkqr1GzcB-4" target="do4SoK2x88aqkqr1GzcB-6">
          <mxGeometry relative="1" as="geometry" />
        </mxCell>
        <mxCell id="do4SoK2x88aqkqr1GzcB-4" value="p2 = read.nextByte" style="rounded=1;whiteSpace=wrap;html=1;" vertex="1" parent="WIyWlLk6GJQsqaUBKTNV-1">
          <mxGeometry x="180" y="130" width="120" height="60" as="geometry" />
        </mxCell>
        <mxCell id="do4SoK2x88aqkqr1GzcB-11" style="edgeStyle=orthogonalEdgeStyle;rounded=0;orthogonalLoop=1;jettySize=auto;html=1;exitX=0.5;exitY=1;exitDx=0;exitDy=0;entryX=0.5;entryY=0;entryDx=0;entryDy=0;" edge="1" parent="WIyWlLk6GJQsqaUBKTNV-1" source="do4SoK2x88aqkqr1GzcB-6" target="do4SoK2x88aqkqr1GzcB-10">
          <mxGeometry relative="1" as="geometry" />
        </mxCell>
        <mxCell id="do4SoK2x88aqkqr1GzcB-13" style="edgeStyle=orthogonalEdgeStyle;rounded=0;orthogonalLoop=1;jettySize=auto;html=1;exitX=0.5;exitY=1;exitDx=0;exitDy=0;entryX=0.5;entryY=0;entryDx=0;entryDy=0;" edge="1" parent="WIyWlLk6GJQsqaUBKTNV-1" source="do4SoK2x88aqkqr1GzcB-6" target="do4SoK2x88aqkqr1GzcB-12">
          <mxGeometry relative="1" as="geometry" />
        </mxCell>
        <mxCell id="do4SoK2x88aqkqr1GzcB-6" value="if (p1 == p2)" style="rhombus;whiteSpace=wrap;html=1;" vertex="1" parent="WIyWlLk6GJQsqaUBKTNV-1">
          <mxGeometry x="118" y="240" width="92" height="80" as="geometry" />
        </mxCell>
        <mxCell id="do4SoK2x88aqkqr1GzcB-10" value="out (Empate)" style="rounded=1;whiteSpace=wrap;html=1;" vertex="1" parent="WIyWlLk6GJQsqaUBKTNV-1">
          <mxGeometry y="360" width="120" height="60" as="geometry" />
        </mxCell>
        <mxCell id="do4SoK2x88aqkqr1GzcB-18" style="edgeStyle=orthogonalEdgeStyle;rounded=0;orthogonalLoop=1;jettySize=auto;html=1;exitX=0.5;exitY=1;exitDx=0;exitDy=0;entryX=0.5;entryY=0;entryDx=0;entryDy=0;" edge="1" parent="WIyWlLk6GJQsqaUBKTNV-1" source="do4SoK2x88aqkqr1GzcB-12" target="do4SoK2x88aqkqr1GzcB-14">
          <mxGeometry relative="1" as="geometry" />
        </mxCell>
        <mxCell id="do4SoK2x88aqkqr1GzcB-19" style="edgeStyle=orthogonalEdgeStyle;rounded=0;orthogonalLoop=1;jettySize=auto;html=1;exitX=0.5;exitY=1;exitDx=0;exitDy=0;entryX=0.5;entryY=0;entryDx=0;entryDy=0;" edge="1" parent="WIyWlLk6GJQsqaUBKTNV-1" source="do4SoK2x88aqkqr1GzcB-12" target="do4SoK2x88aqkqr1GzcB-17">
          <mxGeometry relative="1" as="geometry" />
        </mxCell>
        <mxCell id="do4SoK2x88aqkqr1GzcB-12" value="else if (p1 == PIEDRA&lt;br&gt;&amp;amp;&amp;amp; p2 == TIJERA)" style="rhombus;whiteSpace=wrap;html=1;" vertex="1" parent="WIyWlLk6GJQsqaUBKTNV-1">
          <mxGeometry x="140" y="360" width="180" height="80" as="geometry" />
        </mxCell>
        <mxCell id="do4SoK2x88aqkqr1GzcB-14" value="out (Gana el Jugador 1)" style="rounded=1;whiteSpace=wrap;html=1;" vertex="1" parent="WIyWlLk6GJQsqaUBKTNV-1">
          <mxGeometry x="50" y="480" width="140" height="60" as="geometry" />
        </mxCell>
        <mxCell id="do4SoK2x88aqkqr1GzcB-15" value="out (Gana el Jugador 1)" style="rounded=1;whiteSpace=wrap;html=1;" vertex="1" parent="WIyWlLk6GJQsqaUBKTNV-1">
          <mxGeometry x="110" y="600" width="140" height="60" as="geometry" />
        </mxCell>
        <mxCell id="do4SoK2x88aqkqr1GzcB-16" value="out (Gana el Jugador 1)" style="rounded=1;whiteSpace=wrap;html=1;" vertex="1" parent="WIyWlLk6GJQsqaUBKTNV-1">
          <mxGeometry x="180" y="720" width="140" height="60" as="geometry" />
        </mxCell>
        <mxCell id="do4SoK2x88aqkqr1GzcB-20" style="edgeStyle=orthogonalEdgeStyle;rounded=0;orthogonalLoop=1;jettySize=auto;html=1;exitX=0.5;exitY=1;exitDx=0;exitDy=0;entryX=0.5;entryY=0;entryDx=0;entryDy=0;" edge="1" parent="WIyWlLk6GJQsqaUBKTNV-1" source="do4SoK2x88aqkqr1GzcB-17" target="do4SoK2x88aqkqr1GzcB-15">
          <mxGeometry relative="1" as="geometry" />
        </mxCell>
        <mxCell id="do4SoK2x88aqkqr1GzcB-22" style="edgeStyle=orthogonalEdgeStyle;rounded=0;orthogonalLoop=1;jettySize=auto;html=1;exitX=0.5;exitY=1;exitDx=0;exitDy=0;entryX=0.5;entryY=0;entryDx=0;entryDy=0;" edge="1" parent="WIyWlLk6GJQsqaUBKTNV-1" source="do4SoK2x88aqkqr1GzcB-17" target="do4SoK2x88aqkqr1GzcB-21">
          <mxGeometry relative="1" as="geometry" />
        </mxCell>
        <mxCell id="do4SoK2x88aqkqr1GzcB-17" value="else if (p1 == PAPEL&lt;br&gt;&amp;amp;&amp;amp; p2 == PIEDRA)" style="rhombus;whiteSpace=wrap;html=1;" vertex="1" parent="WIyWlLk6GJQsqaUBKTNV-1">
          <mxGeometry x="224" y="480" width="180" height="80" as="geometry" />
        </mxCell>
        <mxCell id="do4SoK2x88aqkqr1GzcB-23" style="edgeStyle=orthogonalEdgeStyle;rounded=0;orthogonalLoop=1;jettySize=auto;html=1;exitX=0.5;exitY=1;exitDx=0;exitDy=0;entryX=0.5;entryY=0;entryDx=0;entryDy=0;" edge="1" parent="WIyWlLk6GJQsqaUBKTNV-1" source="do4SoK2x88aqkqr1GzcB-21" target="do4SoK2x88aqkqr1GzcB-16">
          <mxGeometry relative="1" as="geometry" />
        </mxCell>
        <mxCell id="do4SoK2x88aqkqr1GzcB-21" value="else if (p1 == TIJERA&lt;br&gt;&amp;amp;&amp;amp; p2 == PAPEL)" style="rhombus;whiteSpace=wrap;html=1;" vertex="1" parent="WIyWlLk6GJQsqaUBKTNV-1">
          <mxGeometry x="290" y="600" width="180" height="80" as="geometry" />
        </mxCell>
      </root>
    </mxGraphModel>
  </diagram>
</mxfile>
